# xmcd CD database file
#
# Track frame offsets:
#	150
#	38452
#	63017
#	89642
#	119925
#	154780
#	180422
#	221060
#
# Disc length: 3387 seconds
#
# Revision: 2
# Processed by: cddbd v1.4PL0 Copyright (c) Steve Scherf et al.
# Submitted via: CDex 1.50
#
DISCID=6a0d3908
DTITLE=Donald Byrd - Mustang
DYEAR=1966
DGENRE=Jazz
TTITLE0=Mustang
TTITLE1=Fly Little Bird Fly
TTITLE2=I Got It Bad and That Ain't Good
TTITLE3=Dixie Lee
TTITLE4=On The Trail
TTITLE5=I'm So Excited By You
TTITLE6=Gingerbread Boy
TTITLE7=I'm So Excite By You (First Version)
EXTD=with Sonny Red: alto\nJimmy Heath and Hank Mobley: tenor\nMcCoy Tyner: piano\nWalter Booker: bass\nJoe Chambers and Freddie Waits: drums\n YEAR: 1966
EXTT0=
EXTT1=
EXTT2=
EXTT3=
EXTT4=
EXTT5=
EXTT6=
EXTT7=
PLAYORDER=
